<svg xmlns="http://www.w3.org/2000/svg" id="Layer_1" height="512" viewBox="0 0 66 66" width="512"><g><path d="m22.68 53.89c-11.42-2.87-19.41-13.12-19.41-24.92 0-1.23.09-2.44.26-3.62 1.83-.35 3.94-1.59 4.85-2.47.12-.12.25-.25.37-.38.62-.64 1.26-1.29 1.87-1.21.48.06.84.55.97.74.21.33.36.7.53 1.1.09.21.17.42.26.61 1.18 2.63 3.56 4.64 6.35 5.36.49.13 1.04.21 1.58.21 1.17 0 2.35-.38 3.04-1.42.61-.89.7-2.13.26-3.37-.2-.59-.49-1.12-.76-1.64-.15-.29-.31-.58-.44-.87-.86-1.92-.87-4.08-.89-6.36-.01-1.96-.03-3.99-.61-5.92-.46-1.55-1.34-2.99-2.47-4.2.87-.39 1.75-.74 2.67-1.03.08 1 .38 1.98.91 2.84 1.3 2.11 3.74 3.49 6.55 3.71.18.01.36.02.55.03.8.03 1.55.07 2.05.45.45.33.7.95.98 1.61l.13.31c.23.51.91 2.06 2.39 2.35 1.09.23 2.28-.31 3.21-1.45.22-.27.41-.56.61-.85.31-.47.61-.91.98-1.23.61-.53 1.51-.74 2.31-.53.78.21 1.46.84 1.73 1.63.11.31.17.67.23 1.05.13.76.27 1.63.88 2.33.59.67 1.42.96 2.24.96.68 0 1.35-.19 1.88-.53.74-.45 1.34-1.17 1.8-2.13 2.59 4.01 4.11 8.79 4.11 13.91 0 1.7-.17 3.39-.49 5.04-.09.46.21.91.67 1s.91-.21 1-.67c.35-1.76.53-3.56.53-5.37 0-15.11-12.28-27.4-27.38-27.4-15.11 0-27.4 12.29-27.4 27.4 0 12.58 8.51 23.5 20.69 26.57.07.02.14.03.21.03.38 0 .73-.26.82-.64.11-.45-.16-.91-.62-1.03zm26.73-40.47c-.01.03-.02.07-.03.1-.36 1.08-.87 1.83-1.52 2.22-.58.37-1.51.41-1.95-.1-.3-.34-.38-.88-.49-1.5-.07-.43-.15-.88-.3-1.33-.46-1.32-1.57-2.36-2.91-2.71-1.35-.36-2.83-.01-3.87.9-.53.47-.91 1.02-1.27 1.56-.17.25-.34.51-.53.74-.39.48-.99.97-1.54.84-.41-.08-.81-.54-1.17-1.36l-.12-.29c-.33-.81-.71-1.72-1.53-2.32-.91-.7-2.02-.75-3-.79-.17-.01-.34-.01-.5-.03-2.23-.17-4.23-1.29-5.23-2.91-.44-.72-.67-1.58-.68-2.43 1.98-.49 4.05-.76 6.18-.76 8.35.02 15.76 4.01 20.46 10.17zm-32.58-7.1c1.15 1.08 2.03 2.43 2.47 3.9.51 1.7.53 3.52.54 5.45.02 2.35.03 4.79 1.04 7.04.15.33.32.65.49.97.25.48.5.93.66 1.41.26.72.24 1.41-.06 1.85-.49.74-1.75.79-2.78.52-2.27-.59-4.28-2.28-5.24-4.43-.09-.18-.16-.37-.24-.56-.19-.45-.38-.91-.67-1.36-.56-.87-1.34-1.41-2.18-1.51-1.46-.19-2.48.87-3.3 1.71-.12.12-.23.24-.34.35-.56.54-2.01 1.44-3.34 1.86 1.59-7.44 6.43-13.69 12.95-17.2z"></path><path d="m51.3 33.75c-.22.42-.05.93.36 1.14.12.07.26.1.39.1.31 0 .6-.17.75-.46.4-.77.67-1.43.85-2.07.59-2.14.23-4.53-.99-6.41-.97-1.48-2.33-2.4-3.75-2.52-2.28-.2-4.14 1.62-4.89 3.39-.18.43.02.93.45 1.11s.93-.02 1.11-.45c.53-1.27 1.8-2.48 3.18-2.36 1.27.11 2.16 1.27 2.48 1.75.95 1.47 1.24 3.35.78 5.03-.14.54-.37 1.09-.72 1.75z"></path><path d="m25.17 50.04c.41 0 .77-.3.84-.72.07-.46-.24-.9-.71-.97-.29-.05-.59-.08-.88-.11-.63-.05-1.27-.08-1.91-.1-1.33-.05-2.58-.1-3.77-.41-1.41-.39-3.16-1.44-3.43-3.12-.26-1.6.98-3.16 2.33-3.99 1.18-.72 2.54-1.1 3.98-1.51.46-.13.92-.26 1.38-.4 1.66-.52 4.03-1.45 5.32-3.48.62-.96.91-2.03 1.2-3.06.17-.62.34-1.2.56-1.75.82-2.04 2.65-3.67 4.77-4.25 1.24-.36 2.91-.27 3.64.77.64.9.46 2.23.21 3.61l-.81 4.2c-.04.2-.07.39-.1.59-.07.46.25.9.71.97.47.07.9-.25.97-.71.03-.18.06-.36.1-.6l.8-4.14c.31-1.69.53-3.47-.49-4.91-1.22-1.72-3.64-1.95-5.49-1.42-2.61.72-4.87 2.73-5.88 5.25-.26.64-.45 1.3-.62 1.93-.27.95-.52 1.85-1 2.6-1 1.57-2.99 2.34-4.4 2.78-.44.14-.89.26-1.33.39-1.49.42-3.03.86-4.41 1.7-1.7 1.05-3.54 3.17-3.12 5.7.39 2.48 2.75 3.97 4.66 4.49 1.38.37 2.79.42 4.15.47.61.02 1.22.05 1.82.1.26.02.51.06.77.1.05-.01.1 0 .14 0z"></path><path d="m17.02 32.71c-.64.41-1.38.8-1.93.62-.31-.1-.6-.4-.92-.71l-.28-.27c-1.04-.99-1.94-1.03-2.5-.89-.71.17-1.31.75-1.6 1.53-.22.61-.23 1.23-.24 1.73-.01.66-.02 1.66.55 2.47.58.82 1.57 1.23 2.94 1.23.21 0 .43-.01.67-.03 2.2-.19 4.41-.81 6.38-1.79 1.38-.69 2.15-1.48 2.29-2.35.07-.43.02-1.09-.64-1.75-1.69-1.72-3.82-.37-4.72.21zm3.53.99c.04.04.18.19.17.27-.03.16-.35.6-1.37 1.11-1.79.89-3.78 1.45-5.77 1.62-.74.06-1.71.03-2.07-.49-.24-.33-.25-.88-.24-1.47.01-.47.02-.86.13-1.17.09-.24.25-.43.4-.47.02-.01.05-.01.08-.01.21 0 .53.18.86.49l.25.24c.42.42.89.89 1.58 1.11 1.23.41 2.4-.18 3.38-.8 1.37-.87 2.05-.98 2.6-.43z"></path><path d="m56.36 48.55c.71-.55 1.23-1.3 1.51-2.17.37-1.15.27-2.37-.29-3.44-.55-1.07-1.48-1.86-2.63-2.23-.87-.28-1.79-.29-2.65-.03l-4.68-9.12c-.65-1.26-2.19-1.75-3.45-1.11-.61.31-1.06.84-1.27 1.5-.21.65-.15 1.35.16 1.95l.48.94-14.6 17.51-.09-.18c-.6-1.18-2.06-1.64-3.23-1.04-1.18.61-1.64 2.06-1.04 3.23l4.48 8.74c.43.83 1.27 1.31 2.14 1.31.37 0 .74-.09 1.09-.26 1.18-.61 1.64-2.06 1.04-3.23l-.09-.18 2.77-.2 1.52 2.96c.3.59.9.95 1.54.95h.12l9.4-.47c.6-.03 1.14-.36 1.43-.88.3-.52.31-1.15.04-1.68l-.94-1.83 6.87-.5.49.91c.45.88 1.35 1.39 2.28 1.39.39 0 .79-.09 1.17-.28 1.26-.65 1.75-2.19 1.11-3.45zm-24.83 14.07c-.35.18-.77.04-.95-.31l-4.48-8.74c-.18-.35-.04-.77.3-.95.1-.05.21-.08.32-.08.26 0 .5.14.63.38l4.48 8.74c.19.36.05.79-.3.96zm22.91-20.3c.71.23 1.3.72 1.64 1.39s.41 1.43.18 2.15c-.14.44-.38.82-.69 1.14l-2.45-4.78c.43-.08.88-.04 1.32.1zm-7.15 17.38 1.27 2.47.75-.39-.8.48-9.46.44-1.19-2.32 4.46-.33zm-14.87-.62-2.62-5.1 14.6-17.51 10.75 20.95zm26.73.52c-.42.22-.95.05-1.17-.37l-.74-1.44-12.66-24.67c-.11-.21-.12-.44-.05-.66s.22-.4.43-.51c.13-.06.26-.1.39-.1.31 0 .62.17.77.47l13.4 26.11c.23.43.06.96-.37 1.17z"></path><path d="m59.38 41.77c.16.27.44.41.73.41.15 0 .3-.04.44-.12l2.59-1.56c.4-.24.53-.76.29-1.16s-.76-.53-1.16-.29l-2.59 1.56c-.41.24-.54.76-.3 1.16z"></path><path d="m57.39 39.1c.13.08.28.11.42.11.29 0 .58-.15.74-.43l1.5-2.63c.23-.41.09-.93-.32-1.16s-.93-.09-1.16.32l-1.5 2.63c-.23.4-.09.92.32 1.16z"></path><path d="m63.96 45.23-2.69-1.39c-.41-.22-.93-.05-1.14.36-.22.42-.05.93.36 1.14l2.69 1.39c.12.06.26.1.39.1.31 0 .6-.17.75-.46.22-.41.06-.92-.36-1.14z"></path></g></svg>