<svg xmlns="http://www.w3.org/2000/svg" id="Layer_1" viewBox="0 0 761 714"><path d="M107.6,412c-20.1-65.4-23.5-136.2,10.9-198.1,7.6-13.6,19.2-31.6,30.4-42.1s7.7-6.9,7.6-3.3c-25.2,107.9-3.1,209,76.5,288,111.3,110.5,292.6,145.5,416.3,34.9,3.6-1.6,3.6,1,2.5,4.1-64.7,103.9-162.3,147.7-285.3,131-117.2-15.9-218.6-104.3-258.9-214.5Z"></path><path d="M385.8,342.6c57.4,43.5,125.7,67.4,197.7,48.1,32.9-8.8,60.7-27.3,85.4-50.2,1.1-.2.9,1.4.8,2.2-.5,3.3-13.7,25.3-16.5,29.4-61.9,90.1-201.9,93.6-287.9,36.8-90.3-59.6-145-199-64.5-288.9.8-.9,4.9-3.4,5.2-3.1-5.9,37.8-8,77.8,1.9,115.1,12.4,46.3,40.2,82,78,110.6Z"></path><path d="M480.9,217.7c29.8,24.9,69.8,40.4,109.1,37.9,17.9-1.2,30.9-7.1,47.4-12.2s4.6-2.4,5.4-.6c-36.4,60.1-128.4,52.6-178.5,14.6-51.7-39.3-81.5-119.5-33.2-173.4-8.6,52.5,9.3,99.7,49.7,133.6Z"></path><path d="M107.6,412c-28.1-76.7-22-166,31.3-230.2,3-3.6,12.7-16.3,17.1-15.7,2.8,1.7,1.4,2.3,1.3,4.2-.9,15-6.5,33-8,48.8-12.2,126.9,44.6,220,148.3,286.9,102,65.9,238.3,73.5,336.9-3.1,4.7-3.7,30.9-29.5,17.2-7.4l-2.2-3c-130.1,116.5-323.1,71-432.4-50.7-68.5-76.2-84.2-174.1-61.9-272.8-2-2.1-13.4,12.3-14.9,14.2-53.3,66.7-56.1,142.9-33.2,222.5.6,2.2,2.1,4.1.3,6.3Z"></path></svg>